<mxfile host="app.diagrams.net" modified="2023-11-27T12:51:23.469Z" agent="Mozilla/5.0 (X11; Linux x86_64) AppleWebKit/537.36 (KHTML, like Gecko) Chrome/119.0.0.0 Safari/537.36" version="22.1.4" etag="ohWda5qP8Q0SdsmPPI7v" type="github">
  <diagram name="Seite-1" id="ScH-AyTPMdpUWybHjJno">
    <mxGraphModel>
      <root>
        <mxCell id="0" />
        <mxCell id="1" parent="0" />
      </root>
    </mxGraphModel>
  </diagram>
</mxfile>
